<?xml version="1.0" encoding="utf-8"?>
<!-- Generator: Adobe Illustrator 24.2.1, SVG Export Plug-In . SVG Version: 6.00 Build 0)  -->
<svg version="1.1" id="Ebene_1" xmlns="http://www.w3.org/2000/svg" xmlns:xlink="http://www.w3.org/1999/xlink" x="0px" y="0px"
	 viewBox="0 0 154 60" enable-background="new 0 0 154 60" xml:space="preserve">
<g>
	<path d="M41.7,45c-2.2,9.4-9.5,14.8-19.2,14.8c-11.8,0-20.9-8.9-20.9-22c0-13.1,9.1-22,20.9-22c9.7,0,17,5.5,19.2,14.4h-6.5
		c-1.7-5.5-6.4-8.5-12.6-8.5c-7.9,0-14.4,6.3-14.4,16.1c0,9.7,6.4,16.1,14.4,16.1c6.2,0,10.9-2.9,12.6-8.9H41.7z"/>
	<path d="M46.8,0.6h7.4v7.2h-7.4V0.6z M47.3,16.7h6.5V59h-6.5V16.7z"/>
	<path d="M107.7,22.6v-5.9h-10V4.9h-6.5v11.8h-5.7h-1.3h-6.1c-4.8,0-6.5,1.8-8.3,4.2h-0.4l-0.9-4.2h-5.7V59h6.5V31.9
		c0-6,3.4-9.3,9.6-9.3h5.2h1.3h5.7v29.2c0,4.3,3,7.2,7.8,7.2h8.7v-5.9h-7.4c-1.7,0-2.6-0.8-2.6-2.5V22.6H107.7z"/>
	<path d="M111.5,37.9c0-13.1,9.1-22,20.9-22s20.9,8.9,20.9,22c0,13.1-9.1,22-20.9,22S111.5,51,111.5,37.9z M146.7,37.9
		c0-9.7-6.4-16.1-14.4-16.1S118,28.1,118,37.9c0,9.7,6.4,16.1,14.4,16.1S146.7,47.6,146.7,37.9z"/>
	<rect x="120.2" y="1.3" width="24.4" height="6"/>
</g>
</svg>
