<?xml version="1.0" encoding="utf-8"?>
<!-- Generator: Adobe Illustrator 24.2.1, SVG Export Plug-In . SVG Version: 6.00 Build 0)  -->
<svg version="1.1" id="Ebene_1" xmlns="http://www.w3.org/2000/svg" xmlns:xlink="http://www.w3.org/1999/xlink" x="0px" y="0px"
	 viewBox="0 0 40 88" style="enable-background:new 0 0 40 88;" xml:space="preserve">
<path d="M14.9-0.3c-8.3,0-15,6.7-15,15v53c0,11,9,20,20,20s20-9,20-20v-53c0-1.1-0.9-2-2-2c-1.1,0-2,0.9-2,2c0,0,0,0,0,0.1v53
	c0,8.9-7.1,16-16,16s-16-7.1-16-16v-53c0-6.1,4.9-11,11-11s11,4.9,11,11c0,1.1,0.9,2,2,2c1.1,0,2-0.9,2-2c0,0,0,0,0-0.1
	C29.9,6.4,23.1-0.3,14.9-0.3z M27.6,20.6c-1,0.1-1.8,1-1.8,2v41c0,3.4-2.6,6-6,6s-6-2.6-6-6v-39c0-1.1-0.9-2-2-2c-1.1,0-2,0.9-2,2
	c0,0,0,0,0,0.1v39c0,5.5,4.5,10,10,10s10-4.5,10-10v-41c0-1.1-0.9-2-2-2c0,0,0,0-0.1,0C27.8,20.6,27.7,20.6,27.6,20.6z"/>
</svg>
